# xmcd
#
# Track frame offsets:
#	150
#	12940
#	25992
#	35736
#	51914
#	65875
#	78259
#	94563
#	109728
#	122337
#	134852
#	154089
#	172746
#	187475
#	201988
#	213282
#
# Disc length: 3041 seconds
#
# Revision: 1
# Processed by: cddbd v1.5.2PL0 Copyright (c) Steve Scherf et al.
# Submitted via: audiograbber 1.83.01
#
DISCID=e50bdf10
DTITLE=Various Artist - Summers Of Love
DYEAR=1900
DGENRE=R&B
TTITLE0=AMEN CORNER - (If Paradise Is) Half As Nice
TTITLE1=THE TURTLES - Happy Together
TTITLE2=JEWEL AKENS - The Birds And The Bees
TTITLE3=THE FLOWERPOT MAN - Let´s Go To San Francisco
TTITLE4=Helen Reddy - Delta Dawn
TTITLE5=DONOVAN - Colours
TTITLE6=THE BEACH BOYS - Good Vibrations
TTITLE7=Alex Harvey - You Make My Live So Beautiful
TTITLE8=CONSORTIUM - All The Love In The World
TTITLE9=SMALL FACES - Itchycoo Park
TTITLE10=THE BUDYS - Give Up Your Guns
TTITLE11=THE HOLLIES - Blowin´In The Wind
TTITLE12=P.P: Arnold - Angel Of The Morning
TTITLE13=Jackie Deshannon - What The World Needs Now Is Love
TTITLE14=David Williams - Days of Pearly Spencer
TTITLE15=Steve Rowland and The Family Dogg - Sympathy
EXTD=
EXTT0=
EXTT1=
EXTT2=
EXTT3=
EXTT4=
EXTT5=
EXTT6=
EXTT7=
EXTT8=
EXTT9=
EXTT10=
EXTT11=
EXTT12=
EXTT13=
EXTT14=
EXTT15=
PLAYORDER=
